<svg xmlns="http://www.w3.org/2000/svg" viewBox="0 0 400 400" width="400" height="400">
  <defs>
    <linearGradient id="bg" x1="0" y1="0" x2="1" y2="1">
      <stop offset="0%" stop-color="#0070E0" />
      <stop offset="100%" stop-color="#00204D" />
    </linearGradient>
  </defs>
  <rect width="400" height="400" rx="32" fill="url(#bg)" />
  <g fill="rgba(255,255,255,0.95)">
    <rect x="60" y="60" width="60" height="60" rx="6" />
    <rect x="75" y="75" width="30" height="30" rx="3" fill="#0070E0" />
    <rect x="280" y="60" width="60" height="60" rx="6" />
    <rect x="295" y="75" width="30" height="30" rx="3" fill="#0070E0" />
    <rect x="60" y="280" width="60" height="60" rx="6" />
    <rect x="75" y="295" width="30" height="30" rx="3" fill="#0070E0" />
  </g>
  <g fill="rgba(255,255,255,0.85)">
    <rect x="150" y="60" width="14" height="14" />
    <rect x="180" y="60" width="14" height="14" />
    <rect x="210" y="80" width="14" height="14" />
    <rect x="240" y="60" width="14" height="14" />
    <rect x="150" y="100" width="14" height="14" />
    <rect x="200" y="120" width="14" height="14" />
    <rect x="60" y="160" width="14" height="14" />
    <rect x="100" y="180" width="14" height="14" />
    <rect x="140" y="160" width="14" height="14" />
    <rect x="180" y="200" width="14" height="14" />
    <rect x="220" y="160" width="14" height="14" />
    <rect x="260" y="200" width="14" height="14" />
    <rect x="300" y="180" width="14" height="14" />
    <rect x="320" y="220" width="14" height="14" />
    <rect x="60" y="240" width="14" height="14" />
    <rect x="120" y="260" width="14" height="14" />
    <rect x="180" y="240" width="14" height="14" />
    <rect x="230" y="260" width="14" height="14" />
    <rect x="280" y="240" width="14" height="14" />
    <rect x="320" y="280" width="14" height="14" />
    <rect x="160" y="300" width="14" height="14" />
    <rect x="200" y="320" width="14" height="14" />
    <rect x="240" y="300" width="14" height="14" />
    <rect x="280" y="320" width="14" height="14" />
  </g>
  <text x="200" y="380" font-family="Arial, sans-serif" font-size="18" font-weight="bold" fill="#ffffff" text-anchor="middle">
    REPLACE WITH REAL GCASH QR
  </text>
</svg>
